<svg class="lamp-logo" id="Layer_1" data-name="Layer 1" xmlns="http://www.w3.org/2000/svg" viewBox="0 0 171 272.5"><defs><style>.cls-1{fill:#faee39;}.cls-2{stroke:#d2d627;stroke-linecap:round;stroke-linejoin:round;stroke-width:9px;}.cls-3{fill:#d2d627;}</style></defs><title>lamp</title><path class="cls-1" d="M360.59,256.27a85.17,85.17,0,0,1-17.79,54.49,91.21,91.21,0,0,0-19.43,55.72v7a8.56,8.56,0,0,1-8.56,8.56H235.44a8.56,8.56,0,0,1-8.56-8.56v-6.95A90.25,90.25,0,0,0,207.65,311a85.51,85.51,0,0,1,72.1-137.9C324,175.46,359.46,211.94,360.59,256.27Z" transform="translate(-189.62 -173)"/><line class="cls-2" x1="47.95" y1="219.92" x2="123.05" y2="219.92"/><line class="cls-2" x1="54.95" y1="233.08" x2="116.05" y2="233.08"/><line class="cls-2" x1="62.98" y1="246.25" x2="108.02" y2="246.25"/><path class="cls-3" d="M288.55,429.17a2.64,2.64,0,0,1,2.6,3.12,16.34,16.34,0,0,1-32.07,0,2.64,2.64,0,0,1,2.6-3.12Z" transform="translate(-189.62 -173)"/></svg>